<mxfile host="app.diagrams.net" modified="2022-06-02T09:45:25.405Z" agent="5.0 (Windows NT 10.0; Win64; x64) AppleWebKit/537.36 (KHTML, like Gecko) Chrome/102.0.5005.63 Safari/537.36" etag="Hvpa-QLSt8vsbWaSPD_v" version="17.4.2" type="github">
  <diagram id="0RxPYv7f0OxZdxFhqkUp" name="Page-1">
    <mxGraphModel dx="2574" dy="1403" grid="1" gridSize="10" guides="1" tooltips="1" connect="1" arrows="1" fold="1" page="1" pageScale="1" pageWidth="827" pageHeight="1169" math="0" shadow="1">
      <root>
        <mxCell id="0" />
        <mxCell id="1" parent="0" />
      </root>
    </mxGraphModel>
  </diagram>
</mxfile>
